
<svg xmlns="http://www.w3.org/2000/svg" xmlns:xlink="http://www.w3.org/1999/xlink" width="32px" height="32px" viewBox="0 0 32 32" version="1.1">
<g id="surface1">
<path style=" stroke:none;fill-rule:nonzero;fill:rgb(100%,90.980393%,7.058824%);fill-opacity:1;" d="M 32 29.5 C 32 30.878906 30.878906 32 29.5 32 L 2.5 32 C 1.117188 32 0 30.878906 0 29.5 L 0 2.5 C 0 1.117188 1.117188 0 2.5 0 L 29.5 0 C 30.878906 0 32 1.117188 32 2.5 Z M 32 29.5 "/>
<path style=" stroke:none;fill-rule:nonzero;fill:rgb(0%,0%,0%);fill-opacity:1;" d="M 16 4.5 C 8.820312 4.5 3 9.089844 3 14.75 C 3 18.410156 5.433594 21.621094 9.09375 23.433594 C 8.894531 24.121094 7.8125 27.851562 7.769531 28.144531 C 7.769531 28.144531 7.746094 28.367188 7.886719 28.449219 C 8.03125 28.535156 8.199219 28.46875 8.199219 28.46875 C 8.605469 28.410156 12.941406 25.367188 13.691406 24.839844 C 14.441406 24.945312 15.210938 25 16 25 C 23.179688 25 29 20.410156 29 14.75 C 29 9.089844 23.179688 4.5 16 4.5 Z M 16 4.5 "/>
<path style=" stroke:none;fill-rule:nonzero;fill:rgb(100%,90.980393%,7.058824%);fill-opacity:1;" d="M 8.8125 18.328125 C 8.398438 18.328125 8.0625 18.007812 8.0625 17.613281 L 8.0625 13.15625 L 6.890625 13.15625 C 6.484375 13.15625 6.15625 12.828125 6.15625 12.421875 C 6.15625 12.015625 6.484375 11.6875 6.890625 11.6875 L 10.734375 11.6875 C 11.136719 11.6875 11.46875 12.015625 11.46875 12.421875 C 11.46875 12.828125 11.136719 13.15625 10.734375 13.15625 L 9.5625 13.15625 L 9.5625 17.613281 C 9.5625 18.007812 9.226562 18.328125 8.8125 18.328125 Z M 15.390625 18.316406 C 15.074219 18.316406 14.835938 18.191406 14.765625 17.988281 L 14.394531 17.015625 L 12.105469 17.015625 L 11.734375 17.988281 C 11.664062 18.191406 11.425781 18.316406 11.113281 18.316406 C 10.945312 18.316406 10.785156 18.28125 10.632812 18.214844 C 10.429688 18.121094 10.230469 17.859375 10.457031 17.148438 L 12.25 12.429688 C 12.378906 12.070312 12.761719 11.699219 13.25 11.6875 C 13.738281 11.699219 14.125 12.070312 14.25 12.429688 L 16.042969 17.148438 C 16.269531 17.859375 16.070312 18.121094 15.867188 18.214844 C 15.714844 18.28125 15.554688 18.316406 15.390625 18.316406 C 15.386719 18.316406 15.390625 18.316406 15.390625 18.316406 Z M 14 15.6875 L 13.25 13.558594 L 12.5 15.6875 Z M 17.25 18.21875 C 16.855469 18.21875 16.53125 17.910156 16.53125 17.53125 L 16.53125 12.4375 C 16.53125 12.023438 16.875 11.6875 17.296875 11.6875 C 17.71875 11.6875 18.0625 12.023438 18.0625 12.4375 L 18.0625 16.84375 L 19.65625 16.84375 C 20.054688 16.84375 20.375 17.152344 20.375 17.53125 C 20.375 17.910156 20.054688 18.21875 19.65625 18.21875 Z M 21.417969 18.316406 C 21.003906 18.316406 20.667969 17.980469 20.667969 17.566406 L 20.667969 12.4375 C 20.667969 12.023438 21.003906 11.6875 21.417969 11.6875 C 21.832031 11.6875 22.167969 12.023438 22.167969 12.4375 L 22.167969 14.050781 L 24.257812 11.957031 C 24.367188 11.851562 24.515625 11.789062 24.675781 11.789062 C 24.863281 11.789062 25.050781 11.871094 25.191406 12.011719 C 25.324219 12.144531 25.402344 12.3125 25.410156 12.488281 C 25.421875 12.664062 25.363281 12.824219 25.246094 12.945312 L 23.535156 14.652344 L 25.382812 17.097656 C 25.503906 17.257812 25.554688 17.457031 25.527344 17.652344 C 25.5 17.851562 25.394531 18.027344 25.234375 18.148438 C 25.105469 18.246094 24.949219 18.300781 24.785156 18.300781 C 24.550781 18.300781 24.328125 18.191406 24.1875 18 L 22.425781 15.671875 L 22.167969 15.933594 L 22.167969 17.566406 C 22.167969 17.980469 21.832031 18.316406 21.417969 18.316406 Z M 21.417969 18.316406 "/>
</g>
</svg>
